<svg width="24" height="25" viewBox="0 0 24 25" fill="none" xmlns="http://www.w3.org/2000/svg">
<g clip-path="url(#clip0_68_1087)">
<path d="M8 6.5C8 5.96957 8.21071 5.46086 8.58579 5.08579C8.96086 4.71071 9.46957 4.5 10 4.5H18C18.5304 4.5 19.0391 4.71071 19.4142 5.08579C19.7893 5.46086 20 5.96957 20 6.5V14.5C20 15.0304 19.7893 15.5391 19.4142 15.9142C19.0391 16.2893 18.5304 16.5 18 16.5H10C9.46957 16.5 8.96086 16.2893 8.58579 15.9142C8.21071 15.5391 8 15.0304 8 14.5V6.5Z" stroke="#333333" stroke-width="1.5" stroke-linecap="round" stroke-linejoin="round"/>
<path d="M16 16.5V18.5C16 19.0304 15.7893 19.5391 15.4142 19.9142C15.0391 20.2893 14.5304 20.5 14 20.5H6C5.46957 20.5 4.96086 20.2893 4.58579 19.9142C4.21071 19.5391 4 19.0304 4 18.5V10.5C4 9.96957 4.21071 9.46086 4.58579 9.08579C4.96086 8.71071 5.46957 8.5 6 8.5H8" stroke="#333333" stroke-width="1.5" stroke-linecap="round" stroke-linejoin="round"/>
</g>
<defs>
<clipPath id="clip0_68_1087">
<rect width="24" height="24" fill="white" transform="translate(0 0.5)"/>
</clipPath>
</defs>
</svg>
